<svg width="512" height="512" viewBox="0 0 512 512" fill="none" xmlns="http://www.w3.org/2000/svg">
  <!-- Background circle for adaptive icon -->
  <circle cx="256" cy="256" r="256" fill="#FF6B35"/>
  
  <!-- Simplified flame icon in white -->
  <g transform="translate(256, 140)">
    <path d="M0 0C0 0 -30 35 -30 70C-30 92 -18 110 0 110C18 110 30 92 30 70C30 35 0 0 0 0Z" fill="white" opacity="0.95"/>
    <path d="M0 15C0 15 -18 40 -18 62C-18 76 -11 87 0 87C11 87 18 76 18 62C18 40 0 15 0 15Z" fill="white" opacity="0.85"/>
  </g>
  
  <!-- Simplified anvil in white -->
  <g transform="translate(256, 280)">
    <!-- Anvil body -->
    <rect x="-60" y="0" width="120" height="30" rx="6" fill="white" opacity="0.95"/>
    <path d="M-70 30 L-70 65 L-45 80 L45 80 L70 65 L70 30 Z" fill="white" opacity="0.9"/>
    
    <!-- Anvil face -->
    <ellipse cx="0" cy="0" rx="60" ry="10" fill="white"/>
    
    <!-- Base -->
    <rect x="-45" y="80" width="90" height="25" rx="3" fill="white" opacity="0.85"/>
  </g>
  
  <!-- Small accent sparks -->
  <circle cx="300" cy="250" r="6" fill="white" opacity="0.7"/>
  <circle cx="315" cy="260" r="4" fill="white" opacity="0.6"/>
  <circle cx="290" cy="235" r="5" fill="white" opacity="0.65"/>
</svg>
